<?xml version="1.0" encoding="utf-8"?>
<!-- Generator: Adobe Illustrator 22.1.0, SVG Export Plug-In . SVG Version: 6.00 Build 0)  -->
<svg version="1.1" id="Layer_1" xmlns="http://www.w3.org/2000/svg" xmlns:xlink="http://www.w3.org/1999/xlink" x="0px" y="0px"
	 viewBox="0 0 24 24" style="enable-background:new 0 0 24 24;" xml:space="preserve">
<style type="text/css">
	.st0{fill:none;}
</style>
<g id="Bounding_Boxes">
	<path class="st0" d="M0,0h24v24H0V0z"/>
</g>
<g>
	<path d="M11,22.6c-0.3,0-0.5-0.1-0.7-0.3l-9.7-9.8c-0.4-0.4-0.4-1,0-1.4l9.7-9.8c0.4-0.4,1-0.4,1.4,0c0.4,0.4,0.4,1,0,1.4l-9,9.1
		l9,9.1c0.4,0.4,0.4,1,0,1.4C11.6,22.5,11.3,22.6,11,22.6z"/>
	<path d="M23,12.8H1.4c-0.6,0-1-0.5-1-1s0.5-1,1-1H23c0.6,0,1,0.5,1,1S23.5,12.8,23,12.8z"/>
</g>
</svg>
